# xmcd
#
# Track frame offsets: 
#        150
#        19422
#        38150
#        60137
#        84320
#        104395
#        124650
#        145057
#        165787
#        187202
#
# Disc length: 2758 seconds
#
# Revision: 1
# Processed by: cddbd v1.5.2PL0 Copyright (c) Steve Scherf et al.
# Submitted via: ExactAudioCopy v1.0b4
#
DISCID=770ac40a
DTITLE=林憶蓮 - Sandy '94
DYEAR=1994
DGENRE=Pop
TTITLE0=多些那些...
TTITLE1=芝加哥的故事
TTITLE2=誰像你好?!
TTITLE3=林憶蓮 and 倫永亮 - 對不起了愛
TTITLE4=決心Remix
TTITLE5=沉淪
TTITLE6=赤裸的秘密...
TTITLE7=感情不老
TTITLE8=明天醒來時...
TTITLE9=決心
EXTD=
EXTT0=
EXTT1=
EXTT2=
EXTT3=
EXTT4=
EXTT5=
EXTT6=
EXTT7=
EXTT8=
EXTT9=
PLAYORDER=
